<svg width="1200" height="800" viewBox="0 0 1200 800" fill="none" xmlns="http://www.w3.org/2000/svg">
  <defs>
    <linearGradient id="bg" x1="0" y1="0" x2="1" y2="1">
      <stop offset="0" stop-color="#f8fafc" />
      <stop offset="1" stop-color="#eef2ff" />
    </linearGradient>
    <linearGradient id="accent" x1="0" y1="0" x2="1" y2="0">
      <stop offset="0" stop-color="#7c3aed" />
      <stop offset="0.5" stop-color="#4f46e5" />
      <stop offset="1" stop-color="#0d9488" />
    </linearGradient>
    <filter id="shadow" x="-20%" y="-20%" width="140%" height="140%" color-interpolation-filters="sRGB">
      <feDropShadow dx="0" dy="20" stdDeviation="30" flood-color="#0f172a" flood-opacity="0.18" />
    </filter>
  </defs>

  <rect x="60" y="60" width="1080" height="680" rx="36" fill="url(#bg)" stroke="#e2e8f0" stroke-width="2" filter="url(#shadow)" />
  <rect x="60" y="60" width="1080" height="70" rx="36" fill="#0f172a" />
  <circle cx="110" cy="95" r="8" fill="#f87171" />
  <circle cx="140" cy="95" r="8" fill="#fbbf24" />
  <circle cx="170" cy="95" r="8" fill="#34d399" />

  <rect x="110" y="160" width="420" height="220" rx="24" fill="#ffffff" stroke="#e2e8f0" />
  <rect x="110" y="410" width="420" height="260" rx="24" fill="#ffffff" stroke="#e2e8f0" />
  <rect x="560" y="160" width="530" height="510" rx="24" fill="#ffffff" stroke="#e2e8f0" />

  <rect x="150" y="210" width="220" height="12" rx="6" fill="#e2e8f0" />
  <rect x="150" y="235" width="160" height="12" rx="6" fill="#cbd5f5" />
  <rect x="150" y="260" width="120" height="12" rx="6" fill="#e2e8f0" />

  <rect x="150" y="455" width="180" height="10" rx="5" fill="#e2e8f0" />
  <rect x="150" y="480" width="260" height="10" rx="5" fill="#cbd5f5" />
  <rect x="150" y="505" width="200" height="10" rx="5" fill="#e2e8f0" />
  <rect x="150" y="530" width="240" height="10" rx="5" fill="#e2e8f0" />

  <rect x="610" y="210" width="420" height="16" rx="8" fill="#e2e8f0" />
  <rect x="610" y="245" width="320" height="12" rx="6" fill="#cbd5f5" />

  <path d="M620 520 C700 430, 780 510, 860 460 C940 410, 1000 480, 1060 430" stroke="url(#accent)" stroke-width="8" stroke-linecap="round" fill="none" />
  <circle cx="700" cy="470" r="10" fill="#7c3aed" />
  <circle cx="860" cy="460" r="10" fill="#4f46e5" />
  <circle cx="1060" cy="430" r="10" fill="#0d9488" />

  <rect x="610" y="580" width="420" height="18" rx="9" fill="#e2e8f0" />
  <rect x="610" y="610" width="360" height="12" rx="6" fill="#cbd5f5" />
</svg>
